<?xml version="1.0" encoding="UTF-8"?>
<svg width="566.19pt" height="157.32pt" version="1.2" viewBox="0 0 566.19 157.32" xmlns="http://www.w3.org/2000/svg" xmlns:cc="http://creativecommons.org/ns#" xmlns:dc="http://purl.org/dc/elements/1.1/" xmlns:rdf="http://www.w3.org/1999/02/22-rdf-syntax-ns#">
 <metadata>
  <rdf:RDF>
   <cc:Work rdf:about="">
    <dc:format>image/svg+xml</dc:format>
    <dc:type rdf:resource="http://purl.org/dc/dcmitype/StillImage"/>
    <dc:title/>
   </cc:Work>
  </rdf:RDF>
 </metadata>
 <g transform="translate(-49.094 -80.242)" fill="#211e1e">
  <path d="m298.38 87.125h-8.5039v-6.8828h24.863v6.8828h-8.5039v21.465h-7.8555z"/>
  <path d="m319.08 80.242h7.8555v10.605h10.082v-10.605h7.8555v28.348h-7.8555v-10.773h-10.082v10.773h-7.8555z"/>
  <path d="m350.5 80.242h22.801v6.6797h-15.027v4.293h13.609v6.1953h-13.609v4.4961h15.23v6.6836h-23.004z"/>
  <path d="m345.68 127.35h16.293l25.918 33.301v-33.301h17.277v63h-15.297l-26.91-34.562v34.562h-17.281z"/>
  <path d="m415.15 127.35h48.133v14.852h-30.609v9.5391h27.617v13.77h-27.617v9.9883h31.039v14.852h-48.562z"/>
  <path d="m467.61 127.35h17.527l10.43 36 11.543-36.18h14.277l11.539 36.18 10.434-36h17.184l-20.004 63h-14.449l-12.055-35.82-11.973 35.82h-14.449z"/>
  <path d="m560.29 180.98 9.7188-11.609c6.2109 4.9531 13.141 7.5625 20.43 7.5625 4.6797 0 7.1992-1.6211 7.1992-4.3203v-0.17969c0-2.6094-2.0703-4.0508-10.617-6.0312-13.41-3.0586-23.762-6.8398-23.762-19.797v-0.18359c0-11.699 9.2695-20.156 24.391-20.156 10.707 0 19.078 2.8789 25.918 8.3672l-8.7305 12.328c-5.7578-4.0469-12.059-6.207-17.637-6.207-4.2305 0-6.3008 1.8008-6.3008 4.0508v0.17969c0 2.8789 2.1602 4.1406 10.891 6.1211 14.488 3.1484 23.488 7.8281 23.488 19.617v0.17969c0 12.871-10.172 20.52-25.469 20.52-11.16 0-21.781-3.5078-29.52-10.441"/>
  <path d="m283.68 174.87c10.441 0 17.371-5.7617 17.371-15.93v-0.17969c0-10.082-6.9297-15.93-17.371-15.93h-7.1094v32.039zm-24.566-47.52h24.297c22.5 0 35.547 12.961 35.547 31.141v0.17969c0 18.176-13.227 31.676-35.906 31.676h-23.938z"/>
  <path d="m94.184 166.4v7.6484c-2.6094 1.7109-5.8516 2.6133-10.082 2.6133-9.9883 0-17.098-7.2891-17.098-17.461v-0.17969c0-9.6289 7.0195-17.277 16.109-17.277 3.8242 0 6.9961 0.82422 9.9219 2.332l8.332-13.699c-5.0938-2.6914-11.004-4.2031-18.344-4.2031-19.527 0-33.93 14.398-33.93 32.758v0.17968c0 19.078 14.672 32.578 34.289 32.578 11.43 0 20.699-4.2305 27.359-9.7188v-28.348h-16.559z"/>
  <path d="m165.82 161.89c0 1.5625-1.4375 2.8438-3 2.8438 1.5625 0 2.8438 1.2812 2.8438 2.8438s-1.2812 2.8438-2.8438 2.8438h-2.6875c1.5703 0 2.8438 1.2695 2.8438 2.8398 0 1.5703-1.2734 2.8438-2.8438 2.8438h-13.332c-1.5352 0-3.043-0.2539-4.4922-0.73828l-4.918-1.6328v-20.57c7.0508-2.1445 7.7461-7.5547 9.1524-13.031 0.14453-0.65235 0.82812-1.0312 1.3672-1.0781 3.2266-0.29687 4.5976 2.0156 4.8555 4.2617 0.25391 2.2266-0.3164 4.6094-2.207 9.8438l12.418 0.20313c1.5625 0 2.8438 1.2773 2.8438 2.8398 0 1.5664-1.2812 2.8438-2.8438 2.8438 1.5625 0 2.8438 1.2812 2.8438 2.8438m-16.98-35.867c-16.355 0-29.914 11.949-32.438 27.594h16.359v20.117h-13.238c5.4258 10.688 16.512 18.012 29.316 18.012 18.148 0 32.863-14.711 32.863-32.859 0-18.148-14.715-32.863-32.863-32.863"/>
  <path d="m205.53 159.05c-1.5625 0-2.8438-1.2773-2.8438-2.8398 0-1.5664 1.2812-2.8438 2.8438-2.8438l12.418-0.20313c-1.8906-5.2344-2.4609-7.6172-2.207-9.8438 0.25781-2.2461 1.6289-4.5586 4.8555-4.2617 0.53906 0.0469 1.2227 0.42578 1.3672 1.0781 1.4062 5.4766 2.1016 10.887 9.1523 13.031v20.57l-4.918 1.6328c-1.4492 0.48438-2.957 0.73828-4.4922 0.73828h-13.332c-1.5703 0-2.8438-1.2734-2.8438-2.8438 0-1.5703 1.2734-2.8398 2.8438-2.8398h-2.6875c-1.5625 0-2.8438-1.2812-2.8438-2.8438s1.2812-2.8438 2.8438-2.8438c-1.5625 0-3-1.2773-3-2.8438 0-1.5625 1.2812-2.8438 2.8438-2.8438m-18.723-0.16016c0 18.148 14.711 32.863 32.863 32.863 12.801 0 23.887-7.3281 29.312-18.016h-13.238v-20.117h16.359c-2.5234-15.645-16.082-27.594-32.434-27.594-18.152 0-32.863 14.711-32.863 32.863"/>
  <path d="m131.21 234.85 2.4844-2.9688c1.5859 1.2656 3.3555 1.9336 5.2188 1.9336 1.1953 0 1.8398-0.41406 1.8398-1.1055v-0.0469c0-0.66797-0.52734-1.0312-2.7148-1.5391-3.4258-0.78125-6.0703-1.7461-6.0703-5.0586v-0.0469c0-2.9883 2.3672-5.1484 6.2305-5.1484 2.7383 0 4.875 0.73437 6.625 2.1367l-2.2305 3.1484c-1.4726-1.0352-3.082-1.5859-4.5078-1.5859-1.082 0-1.6094 0.46093-1.6094 1.0352v0.0469c0 0.73437 0.55078 1.0586 2.7812 1.5625 3.7031 0.80468 6.0039 2 6.0039 5.0156v0.043c0 3.2891-2.5976 5.2461-6.5078 5.2461-2.8516 0-5.5664-0.89843-7.543-2.668"/>
  <path d="m151.58 225.05h-4.8281v-3.9102h14.121v3.9102h-4.832v12.188h-4.4609z"/>
  <path d="m174.72 229.23v-0.043c0-2.3242-1.6797-4.3477-4.1406-4.3477-2.4375 0-4.0664 1.9766-4.0664 4.3008v0.0469c0 2.3203 1.6797 4.3438 4.1133 4.3438 2.4609 0 4.0938-1.9766 4.0938-4.3008m-12.785 0v-0.043c0-4.625 3.7266-8.3711 8.6914-8.3711 4.9688 0 8.6484 3.7031 8.6484 8.3242v0.0469c0 4.6211-3.7266 8.3672-8.6953 8.3672-4.9648 0-8.6445-3.6992-8.6445-8.3242"/>
  <path d="m189 228.87c1.5195 0 2.3906-0.73438 2.3906-1.9062v-0.0469c0-1.2656-0.91797-1.9102-2.4141-1.9102h-2.918v3.8633zm-7.4024-7.7266h7.6094c2.4609 0 4.1602 0.64454 5.2422 1.7461 0.94532 0.92187 1.4258 2.1641 1.4258 3.75v0.0469c0 2.4609-1.3125 4.0938-3.3125 4.9453l3.8398 5.6094h-5.1484l-3.2422-4.875h-1.9531v4.875h-4.4609z"/>
  <path d="m199.27 221.14h4.4844v16.098h-4.4844z"/>
  <path d="m207.76 221.14h12.949v3.793h-8.5312v2.4375h7.7266v3.5195h-7.7266v2.5547h8.6445v3.793h-13.062z"/>
  <path d="m223.27 234.85 2.4844-2.9688c1.5859 1.2656 3.3555 1.9336 5.2188 1.9336 1.1953 0 1.8398-0.41406 1.8398-1.1055v-0.0469c0-0.66797-0.52734-1.0312-2.7148-1.5391-3.4258-0.78125-6.0703-1.7461-6.0703-5.0586v-0.0469c0-2.9883 2.3672-5.1484 6.2305-5.1484 2.7383 0 4.875 0.73437 6.625 2.1367l-2.2305 3.1484c-1.4727-1.0352-3.082-1.5859-4.5078-1.5859-1.082 0-1.6094 0.46093-1.6094 1.0352v0.0469c0 0.73437 0.55078 1.0586 2.7812 1.5625 3.7031 0.80468 6.0039 2 6.0039 5.0156v0.043c0 3.2891-2.6016 5.2461-6.5078 5.2461-2.8516 0-5.5664-0.89843-7.543-2.668"/>
  <path d="m251.16 225.05h-4.8281v-3.9102h14.117v3.9102h-4.8281v12.188h-4.4609z"/>
  <path d="m263.03 221.14h4.4609v6.0234h5.7266v-6.0234h4.4609v16.098h-4.4609v-6.1172h-5.7266v6.1172h-4.4609z"/>
  <path d="m289.89 230.89-1.793-4.5742-1.8164 4.5742zm-3.9102-9.8633h4.3008l6.8516 16.211h-4.7812l-1.1758-2.875h-6.207l-1.1484 2.875h-4.6914z"/>
  <path d="m301.14 225.05h-4.8281v-3.9102h14.117v3.9102h-4.8281v12.188h-4.4609z"/>
  <path d="m320.14 221.14h4.7148l3.8398 6.2305 3.8398-6.2305h4.7148v16.098h-4.4414v-9.2461l-4.1133 6.3008h-0.0937l-4.0938-6.2539v9.1992h-4.3672z"/>
  <path d="m349.81 230.89-1.793-4.5742-1.8164 4.5742zm-3.9102-9.8633h4.3008l6.8516 16.211h-4.7812l-1.1758-2.875h-6.207l-1.1484 2.875h-4.6914z"/>
  <path d="m358.85 221.14h4.4609v6.5312l5.543-6.5312h5.2891l-6.0938 6.9219 6.3008 9.1758h-5.3594l-4.0469-5.9805-1.6328 1.8164v4.1641h-4.4609z"/>
  <path d="m376.61 221.14h12.945v3.793h-8.5312v2.4375h7.7266v3.5195h-7.7266v2.5547h8.6484v3.793h-13.062z"/>
  <path d="m404.23 231.21-6.1172-10.074h5.082l3.3125 5.8633 3.332-5.8633h4.9922l-6.1172 10.004v6.0938h-4.4844z"/>
  <path d="m427.3 229.23v-0.043c0-2.3242-1.6797-4.3477-4.1406-4.3477-2.4375 0-4.0703 1.9766-4.0703 4.3008v0.0469c0 2.3203 1.6797 4.3438 4.1172 4.3438 2.4609 0 4.0938-1.9766 4.0938-4.3008m-12.785 0v-0.043c0-4.625 3.7227-8.3711 8.6914-8.3711s8.6484 3.7031 8.6484 8.3242v0.0469c0 4.6211-3.7266 8.3672-8.6953 8.3672-4.9648 0-8.6445-3.6992-8.6445-8.3242"/>
  <path d="m433.97 230.18v-9.0391h4.5312v8.9453c0 2.3203 1.1719 3.4258 2.9648 3.4258s2.9688-1.0586 2.9688-3.3125v-9.0586h4.5273v8.9219c0 5.1992-2.9648 7.4727-7.543 7.4727-4.5742 0-7.4492-2.3203-7.4492-7.3555"/>
  <path d="m458.14 234.85 2.4844-2.9688c1.5859 1.2656 3.3594 1.9336 5.2188 1.9336 1.1992 0 1.8398-0.41406 1.8398-1.1055v-0.0469c0-0.66797-0.52734-1.0312-2.7109-1.5391-3.4258-0.78125-6.0703-1.7461-6.0703-5.0586v-0.0469c0-2.9883 2.3672-5.1484 6.2305-5.1484 2.7383 0 4.875 0.73437 6.6211 2.1367l-2.2266 3.1484c-1.4727-1.0352-3.082-1.5859-4.5117-1.5859-1.0781 0-1.6055 0.46093-1.6055 1.0352v0.0469c0 0.73437 0.55078 1.0586 2.7812 1.5625 3.6992 0.80468 6 2 6 5.0156v0.043c0 3.2891-2.5976 5.2461-6.5078 5.2461-2.8516 0-5.5625-0.89843-7.543-2.668"/>
  <path d="m474.93 221.14h4.7148l3.8398 6.2305 3.8438-6.2305h4.7109v16.098h-4.4375v-9.2461l-4.1172 6.3008h-0.0898l-4.0938-6.2539v9.1992h-4.3711z"/>
  <path d="m496.1 221.14h4.4844v16.098h-4.4844z"/>
  <path d="m504.59 221.14h4.4609v12.188h7.7969v3.9102h-12.258z"/>
  <path d="m519.4 221.14h12.945v3.793h-8.5312v2.4375h7.7305v3.5195h-7.7305v2.5547h8.6484v3.793h-13.062z"/>
 </g>
</svg>
