<?xml version="1.0" encoding="UTF-8" standalone="no"?>
<svg
   xmlns:dc="http://purl.org/dc/elements/1.1/"
   xmlns:cc="http://creativecommons.org/ns#"
   xmlns:rdf="http://www.w3.org/1999/02/22-rdf-syntax-ns#"
   xmlns:svg="http://www.w3.org/2000/svg"
   xmlns="http://www.w3.org/2000/svg"
   viewBox="0 0 491.33868 491.33868"
   height="491.33868"
   width="491.33868"
   xml:space="preserve"
   id="svg2"
   version="1.1"><metadata
     id="metadata8"><rdf:RDF><cc:Work
         rdf:about=""><dc:format>image/svg+xml</dc:format><dc:type
           rdf:resource="http://purl.org/dc/dcmitype/StillImage" /></cc:Work></rdf:RDF></metadata><defs
     id="defs6"><clipPath
       id="clipPath38"
       clipPathUnits="userSpaceOnUse"><path
         id="path36"
         d="M 0,368.504 H 368.504 V 0 H 0 Z" /></clipPath></defs><g
     transform="matrix(1.3333333,0,0,-1.3333333,0,491.33867)"
     id="g10"><g
       transform="translate(150.7991,287.0482)"
       id="g12"><path
         id="path14"
         style="fill:#373535;fill-opacity:1;fill-rule:nonzero;stroke:none"
         d="M 0,0 H -8.504 V 6.884 H 16.361 V 0 H 7.856 V -21.463 H 0 Z" /></g><g
       transform="translate(171.4949,293.9325)"
       id="g16"><path
         id="path18"
         style="fill:#373535;fill-opacity:1;fill-rule:nonzero;stroke:none"
         d="M 0,0 H 7.856 V -10.61 H 17.939 V 0 h 7.857 v -28.348 h -7.857 v 10.772 H 7.856 V -28.348 H 0 Z" /></g><g
       transform="translate(202.9217,293.9325)"
       id="g20"><path
         id="path22"
         style="fill:#373535;fill-opacity:1;fill-rule:nonzero;stroke:none"
         d="M 0,0 H 22.8 V -6.682 H 7.775 v -4.293 H 21.383 V -17.17 H 7.775 v -4.496 h 15.228 v -6.682 l -23.003,0 z" /></g><g
       transform="translate(52.8426,169.9491)"
       id="g24"><path
         id="path26"
         style="fill:#373535;fill-opacity:1;fill-rule:nonzero;stroke:none"
         d="M 0,0 H 15.836 L 41.035,-32.373 V 0 H 57.833 V -61.246 H 42.959 l -26.16,33.598 V -61.246 H 0 Z" /></g><g
       transform="translate(120.6668,169.9491)"
       id="g28"><path
         id="path30"
         style="fill:#373535;fill-opacity:1;fill-rule:nonzero;stroke:none"
         d="M 0,0 H 46.802 V -14.437 H 16.88 v -9.274 H 43.893 V -37.097 H 16.88 v -9.712 h 30.338 v -14.437 l -47.218,0 z" /></g><g
       id="g32"><g
         clip-path="url(#clipPath38)"
         id="g34"><g
           transform="translate(262.0594,117.8026)"
           id="g40"><path
             id="path42"
             style="fill:#373535;fill-opacity:1;fill-rule:nonzero;stroke:none"
             d="m 0,0 9.449,11.287 c 6.037,-4.812 12.775,-7.349 19.862,-7.349 4.549,0 6.999,1.574 6.999,4.199 v 0.175 c 0,2.538 -2.012,3.938 -10.325,5.862 -13.036,2.975 -23.097,6.65 -23.097,19.249 v 0.175 c 0,11.374 9.011,19.598 23.711,19.598 10.411,0 18.547,-2.8 25.198,-8.136 L 43.31,33.073 c -5.6,3.937 -11.725,6.037 -17.149,6.037 -4.112,0 -6.125,-1.75 -6.125,-3.937 v -0.175 c 0,-2.8 2.1,-4.025 10.587,-5.95 C 44.709,25.986 53.459,21.436 53.459,9.975 V 9.8 c 0,-12.512 -9.887,-19.949 -24.761,-19.949 C 17.849,-10.149 7.524,-6.737 0,0" /></g><g
           transform="translate(172.3724,169.9491)"
           id="g44"><path
             id="path46"
             style="fill:#373535;fill-opacity:1;fill-rule:nonzero;stroke:none"
             d="M 0,0 H 17.042 L 27.183,-34.998 38.406,0.175 H 52.289 L 63.511,-34.998 73.653,0 H 90.362 L 70.91,-61.246 H 56.861 L 45.139,-26.423 33.501,-61.246 H 19.453 Z" /></g><g
           transform="translate(283.6805,199.307)"
           id="g48"><path
             id="path50"
             style="fill:#373535;fill-opacity:1;fill-rule:nonzero;stroke:none"
             d="m 0,0 c 10.439,0 17.369,5.76 17.369,15.929 v 0.18 c 0,10.08 -6.93,15.93 -17.369,15.93 H -7.109 V 0 Z M -24.569,47.518 H -0.27 c 22.499,0 35.548,-12.959 35.548,-31.139 v -0.18 c 0,-18.179 -13.229,-31.678 -35.908,-31.678 h -23.939 z" /></g><g
           transform="translate(94.1834,207.7738)"
           id="g52"><path
             id="path54"
             style="fill:#373535;fill-opacity:1;fill-rule:nonzero;stroke:none"
             d="m 0,0 v -7.649 c -2.61,-1.71 -5.85,-2.61 -10.08,-2.61 -9.989,0 -17.099,7.289 -17.099,17.459 v 0.18 c 0,9.63 7.02,17.279 16.11,17.279 3.823,0 6.995,-0.825 9.921,-2.336 l 8.333,13.702 c -5.095,2.692 -11.005,4.204 -18.344,4.204 -19.529,0 -33.929,-14.4 -33.929,-32.759 V 7.29 c 0,-19.079 14.67,-32.579 34.289,-32.579 11.429,0 20.699,4.23 27.359,9.72 V 12.78 H 0 Z" /></g><g
           transform="translate(165.8192,212.2777)"
           id="g56"><path
             id="path58"
             style="fill:#373535;fill-opacity:1;fill-rule:nonzero;stroke:none"
             d="m 0,0 c 0,-1.563 -1.435,-2.843 -2.999,-2.843 1.564,0 2.843,-1.279 2.843,-2.843 0,-1.564 -1.279,-2.843 -2.843,-2.843 h -2.687 c 1.57,0 2.843,-1.272 2.843,-2.843 0,-1.569 -1.273,-2.842 -2.843,-2.842 h -13.333 c -1.535,0 -3.042,0.256 -4.492,0.739 l -4.918,1.632 V 8.726 c 7.053,2.147 7.748,7.556 9.154,13.031 0.142,0.654 0.827,1.032 1.365,1.081 3.229,0.297 4.598,-2.015 4.855,-4.265 0.255,-2.224 -0.315,-4.607 -2.207,-9.842 L -2.843,8.529 C -1.279,8.529 0,7.25 0,5.686 0,4.122 -1.279,2.843 -2.843,2.843 -1.279,2.843 0,1.563 0,0 m -16.98,35.868 c -16.355,0 -29.915,-11.949 -32.437,-27.592 h 16.358 v -20.119 h -13.235 c 5.423,-10.686 16.509,-18.014 29.314,-18.014 18.148,0 32.862,14.713 32.862,32.862 0,18.15 -14.714,32.863 -32.862,32.863" /></g><g
           transform="translate(205.5281,215.1204)"
           id="g60"><path
             id="path62"
             style="fill:#373535;fill-opacity:1;fill-rule:nonzero;stroke:none"
             d="m 0,0 c -1.563,0 -2.843,1.279 -2.843,2.843 0,1.564 1.28,2.843 2.843,2.843 l 12.419,0.203 c -1.893,5.234 -2.462,7.617 -2.207,9.841 0.257,2.25 1.626,4.562 4.855,4.265 0.537,-0.049 1.222,-0.427 1.365,-1.08 1.406,-5.476 2.101,-10.885 9.154,-13.032 v -20.569 l -4.918,-1.632 c -1.45,-0.483 -2.957,-0.739 -4.492,-0.739 H 2.843 c -1.571,0 -2.843,1.273 -2.843,2.843 0,1.57 1.272,2.842 2.843,2.842 H 0.155 c -1.563,0 -2.843,1.28 -2.843,2.844 0,1.563 1.28,2.842 2.843,2.842 -1.563,0 -2.998,1.28 -2.998,2.843 C -2.843,-1.279 -1.563,0 0,0 m -18.725,0.163 c 0,-18.15 14.713,-32.863 32.863,-32.863 12.803,0 23.889,7.328 29.313,18.014 H 30.216 V 5.433 h 16.357 c -2.522,15.643 -16.081,27.592 -32.435,27.592 -18.15,0 -32.863,-14.713 -32.863,-32.862" /></g></g></g></g></svg>