<?xml version="1.0" encoding="UTF-8" standalone="no"?>
<svg
   xmlns:dc="http://purl.org/dc/elements/1.1/"
   xmlns:cc="http://creativecommons.org/ns#"
   xmlns:rdf="http://www.w3.org/1999/02/22-rdf-syntax-ns#"
   xmlns:svg="http://www.w3.org/2000/svg"
   xmlns="http://www.w3.org/2000/svg"
   viewBox="0 0 884.89069 442.44266"
   height="442.44266"
   width="884.89069"
   xml:space="preserve"
   id="svg2"
   version="1.1"><metadata
     id="metadata8"><rdf:RDF><cc:Work
         rdf:about=""><dc:format>image/svg+xml</dc:format><dc:type
           rdf:resource="http://purl.org/dc/dcmitype/StillImage" /></cc:Work></rdf:RDF></metadata><defs
     id="defs6"><clipPath
       id="clipPath42"
       clipPathUnits="userSpaceOnUse"><path
         id="path40"
         d="M 0,331.832 H 663.668 V 0 H 0 Z" /></clipPath></defs><g
     transform="matrix(1.3333333,0,0,-1.3333333,0,442.44267)"
     id="g10"><g
       transform="translate(298.3817,244.7076)"
       id="g12"><path
         id="path14"
         style="fill:#ffffff;fill-opacity:1;fill-rule:nonzero;stroke:none"
         d="M 0,0 H -8.504 V 6.884 H 16.36 V 0 H 7.856 V -21.464 H 0 Z" /></g><g
       transform="translate(319.077,251.5914)"
       id="g16"><path
         id="path18"
         style="fill:#ffffff;fill-opacity:1;fill-rule:nonzero;stroke:none"
         d="M 0,0 H 7.856 V -10.609 H 17.939 V 0 h 7.857 v -28.348 h -7.857 v 10.773 H 7.856 V -28.348 H 0 Z" /></g><g
       transform="translate(350.5037,251.5914)"
       id="g20"><path
         id="path22"
         style="fill:#ffffff;fill-opacity:1;fill-rule:nonzero;stroke:none"
         d="M 0,0 H 22.8 V -6.682 H 7.775 v -4.293 H 21.383 V -17.17 H 7.775 v -4.495 h 15.228 v -6.683 l -23.003,0 z" /></g><g
       transform="translate(345.6815,204.4839)"
       id="g24"><path
         id="path26"
         style="fill:#ffffff;fill-opacity:1;fill-rule:nonzero;stroke:none"
         d="M 0,0 H 16.29 L 42.209,-33.299 V 0 h 17.279 v -62.998 h -15.3 L 17.279,-28.439 V -62.998 H 0 Z" /></g><g
       transform="translate(415.1522,204.4839)"
       id="g28"><path
         id="path30"
         style="fill:#ffffff;fill-opacity:1;fill-rule:nonzero;stroke:none"
         d="M 0,0 H 48.134 V -14.85 H 17.522 v -9.54 H 45.141 V -38.159 H 17.522 v -9.989 h 31.039 v -14.85 H 0 Z" /></g><g
       transform="translate(467.6053,204.4839)"
       id="g32"><path
         id="path34"
         style="fill:#ffffff;fill-opacity:1;fill-rule:nonzero;stroke:none"
         d="M 0,0 H 17.527 L 27.957,-35.999 39.499,0.18 H 53.776 L 65.318,-35.999 75.749,0 H 92.934 L 72.928,-62.998 H 58.479 L 46.424,-27.18 34.455,-62.998 H 20.006 Z" /></g><g
       id="g36"><g
         clip-path="url(#clipPath42)"
         id="g38"><g
           transform="translate(560.2928,150.8463)"
           id="g44"><path
             id="path46"
             style="fill:#ffffff;fill-opacity:1;fill-rule:nonzero;stroke:none"
             d="M 0,0 9.72,11.609 C 15.93,6.659 22.859,4.05 30.148,4.05 c 4.681,0 7.201,1.619 7.201,4.319 v 0.18 c 0,2.61 -2.071,4.05 -10.62,6.03 -13.41,3.06 -23.759,6.84 -23.759,19.799 v 0.181 c 0,11.699 9.269,20.159 24.389,20.159 10.709,0 19.079,-2.88 25.919,-8.37 l -8.73,-12.329 c -5.76,4.049 -12.059,6.209 -17.639,6.209 -4.229,0 -6.3,-1.8 -6.3,-4.05 v -0.18 c 0,-2.88 2.161,-4.14 10.89,-6.12 14.489,-3.149 23.489,-7.829 23.489,-19.619 v -0.18 C 54.988,-2.79 44.818,-10.44 29.519,-10.44 18.359,-10.44 7.74,-6.931 0,0" /></g><g
           transform="translate(283.6805,156.9654)"
           id="g48"><path
             id="path50"
             style="fill:#ffffff;fill-opacity:1;fill-rule:nonzero;stroke:none"
             d="m 0,0 c 10.439,0 17.369,5.76 17.369,15.93 v 0.179 c 0,10.08 -6.93,15.93 -17.369,15.93 H -7.109 V 0 Z M -24.569,47.519 H -0.27 c 22.499,0 35.548,-12.96 35.548,-31.139 v -0.181 c 0,-18.178 -13.229,-31.678 -35.908,-31.678 h -23.939 z" /></g><g
           transform="translate(94.1834,165.4322)"
           id="g52"><path
             id="path54"
             style="fill:#ffffff;fill-opacity:1;fill-rule:nonzero;stroke:none"
             d="m 0,0 v -7.649 c -2.61,-1.71 -5.85,-2.61 -10.08,-2.61 -9.989,0 -17.099,7.289 -17.099,17.459 v 0.18 c 0,9.63 7.02,17.279 16.11,17.279 3.823,0 6.995,-0.824 9.921,-2.335 l 8.333,13.701 c -5.095,2.693 -11.005,4.204 -18.344,4.204 -19.529,0 -33.929,-14.4 -33.929,-32.759 V 7.29 c 0,-19.079 14.67,-32.578 34.289,-32.578 11.429,0 20.699,4.229 27.359,9.719 V 12.78 L 0,12.78 Z" /></g><g
           transform="translate(165.8192,169.9361)"
           id="g56"><path
             id="path58"
             style="fill:#ffffff;fill-opacity:1;fill-rule:nonzero;stroke:none"
             d="m 0,0 c 0,-1.563 -1.435,-2.843 -2.999,-2.843 1.564,0 2.843,-1.279 2.843,-2.843 0,-1.563 -1.279,-2.842 -2.843,-2.842 h -2.687 c 1.57,0 2.843,-1.273 2.843,-2.843 0,-1.57 -1.273,-2.843 -2.843,-2.843 h -13.333 c -1.535,0 -3.042,0.256 -4.492,0.739 l -4.918,1.632 v 20.57 c 7.053,2.147 7.748,7.555 9.154,13.031 0.142,0.654 0.827,1.031 1.365,1.08 3.229,0.297 4.598,-2.015 4.855,-4.264 0.255,-2.224 -0.315,-4.607 -2.207,-9.842 L -2.843,8.529 C -1.279,8.529 0,7.25 0,5.687 0,4.123 -1.279,2.844 -2.843,2.844 -1.279,2.844 0,1.564 0,0 m -16.98,35.868 c -16.355,0 -29.915,-11.949 -32.437,-27.592 h 16.358 v -20.119 h -13.235 c 5.423,-10.685 16.509,-18.013 29.314,-18.013 18.148,0 32.862,14.712 32.862,32.862 0,18.149 -14.714,32.862 -32.862,32.862" /></g><g
           transform="translate(205.5281,172.7798)"
           id="g60"><path
             id="path62"
             style="fill:#ffffff;fill-opacity:1;fill-rule:nonzero;stroke:none"
             d="m 0,0 c -1.563,0 -2.843,1.279 -2.843,2.843 0,1.563 1.28,2.843 2.843,2.843 l 12.419,0.203 c -1.893,5.234 -2.462,7.617 -2.207,9.841 0.257,2.249 1.626,4.561 4.855,4.264 0.537,-0.049 1.222,-0.426 1.365,-1.08 1.406,-5.476 2.101,-10.884 9.154,-13.031 v -20.57 l -4.918,-1.631 c -1.45,-0.484 -2.957,-0.74 -4.492,-0.74 H 2.843 c -1.571,0 -2.843,1.273 -2.843,2.843 0,1.57 1.272,2.843 2.843,2.843 H 0.155 c -1.563,0 -2.843,1.279 -2.843,2.843 0,1.563 1.28,2.842 2.843,2.842 -1.563,0 -2.998,1.28 -2.998,2.843 C -2.843,-1.279 -1.563,0 0,0 m -18.725,0.162 c 0,-18.149 14.713,-32.862 32.863,-32.862 12.803,0 23.889,7.328 29.313,18.013 H 30.216 v 20.12 h 16.357 c -2.522,15.642 -16.081,27.591 -32.435,27.591 -18.15,0 -32.863,-14.712 -32.863,-32.862" /></g><g
           transform="translate(165.0555,110.691)"
           id="g64"><path
             id="path66"
             style="fill:#ffffff;fill-opacity:1;fill-rule:nonzero;stroke:none"
             d="m 0,0 h 4.162 l 6.622,-8.509 V 0 h 4.415 V -16.097 H 11.29 l -6.875,8.83 v -8.83 H 0 Z" /></g><g
           transform="translate(183.8113,110.691)"
           id="g68"><path
             id="path70"
             style="fill:#ffffff;fill-opacity:1;fill-rule:nonzero;stroke:none"
             d="M 0,0 H 12.946 V -3.794 H 4.415 v -2.437 h 7.727 V -9.75 H 4.415 v -2.553 h 8.647 v -3.794 H 0 Z" /></g><g
           transform="translate(198.5613,110.691)"
           id="g72"><path
             id="path74"
             style="fill:#ffffff;fill-opacity:1;fill-rule:nonzero;stroke:none"
             d="m 0,0 h 4.714 l 2.806,-9.313 3.104,9.359 h 3.84 L 17.568,-9.313 20.374,0 h 4.622 l -5.381,-16.212 h -3.886 l -3.243,9.268 -3.218,-9.268 H 5.381 Z" /></g><g
           transform="translate(224.0408,96.9859)"
           id="g76"><path
             id="path78"
             style="fill:#ffffff;fill-opacity:1;fill-rule:nonzero;stroke:none"
             d="M 0,0 2.483,2.966 C 4.07,1.701 5.841,1.034 7.703,1.034 c 1.196,0 1.84,0.414 1.84,1.105 v 0.046 c 0,0.667 -0.529,1.034 -2.714,1.54 -3.426,0.782 -6.07,1.748 -6.07,5.059 V 8.83 c 0,2.989 2.368,5.15 6.231,5.15 2.737,0 4.875,-0.735 6.623,-2.137 l -2.23,-3.151 c -1.472,1.035 -3.082,1.586 -4.508,1.586 -1.08,0 -1.609,-0.46 -1.609,-1.034 V 9.198 c 0,-0.736 0.551,-1.058 2.782,-1.564 3.702,-0.805 6.002,-2 6.002,-5.013 V 2.575 c 0,-3.288 -2.599,-5.243 -6.508,-5.243 C 4.69,-2.668 1.978,-1.771 0,0" /></g><g
           transform="translate(252.2449,100.6187)"
           id="g80"><path
             id="path82"
             style="fill:#ffffff;fill-opacity:1;fill-rule:nonzero;stroke:none"
             d="m 0,0 -6.116,10.072 h 5.082 l 3.311,-5.864 3.334,5.864 h 4.99 L 4.484,0.069 v -6.093 l -4.484,0 z" /></g><g
           transform="translate(275.2742,102.5963)"
           id="g84"><path
             id="path86"
             style="fill:#ffffff;fill-opacity:1;fill-rule:nonzero;stroke:none"
             d="m 0,0 v 0.046 c 0,2.323 -1.679,4.347 -4.14,4.347 -2.437,0 -4.069,-1.978 -4.069,-4.3 V 0.046 C -8.209,-2.276 -6.53,-4.3 -4.094,-4.3 -1.633,-4.3 0,-2.322 0,0 m -12.785,0 v 0.046 c 0,4.622 3.724,8.37 8.691,8.37 4.968,0 8.647,-3.702 8.647,-8.323 V 0.046 c 0,-4.622 -3.725,-8.37 -8.693,-8.37 -4.966,0 -8.645,3.702 -8.645,8.324" /></g><g
           transform="translate(282.1219,101.6539)"
           id="g88"><path
             id="path90"
             style="fill:#ffffff;fill-opacity:1;fill-rule:nonzero;stroke:none"
             d="M 0,0 V 9.037 H 4.53 V 0.092 c 0,-2.322 1.173,-3.426 2.966,-3.426 1.794,0 2.967,1.058 2.967,3.311 v 9.06 h 4.53 V 0.115 c 0,-5.197 -2.967,-7.473 -7.543,-7.473 C 2.874,-7.358 0,-5.036 0,0" /></g><g
           transform="translate(306.0252,110.691)"
           id="g92"><path
             id="path94"
             style="fill:#ffffff;fill-opacity:1;fill-rule:nonzero;stroke:none"
             d="m 0,0 h 4.714 l 2.806,-9.313 3.104,9.359 h 3.84 L 17.568,-9.313 20.374,0 h 4.622 l -5.381,-16.212 h -3.886 l -3.243,9.268 -3.218,-9.268 H 5.381 Z" /></g><g
           transform="translate(341.1531,100.941)"
           id="g96"><path
             id="path98"
             style="fill:#ffffff;fill-opacity:1;fill-rule:nonzero;stroke:none"
             d="M 0,0 -1.793,4.576 -3.61,0 Z M -3.909,9.865 H 0.392 L 7.243,-6.347 H 2.461 L 1.288,-3.473 H -4.921 L -6.07,-6.347 h -4.692 z" /></g><g
           transform="translate(350.3367,110.691)"
           id="g100"><path
             id="path102"
             style="fill:#ffffff;fill-opacity:1;fill-rule:nonzero;stroke:none"
             d="m 0,0 h 4.162 l 6.622,-8.509 V 0 h 4.415 V -16.097 H 11.29 l -6.875,8.83 v -8.83 H 0 Z" /></g><g
           transform="translate(372.4959,106.7818)"
           id="g104"><path
             id="path106"
             style="fill:#ffffff;fill-opacity:1;fill-rule:nonzero;stroke:none"
             d="M 0,0 H -4.828 V 3.909 H 9.29 V 0 H 4.462 V -12.188 H 0 Z" /></g><g
           transform="translate(395.0203,106.7818)"
           id="g108"><path
             id="path110"
             style="fill:#ffffff;fill-opacity:1;fill-rule:nonzero;stroke:none"
             d="M 0,0 H -4.828 V 3.909 H 9.29 V 0 H 4.462 V -12.188 H 0 Z" /></g><g
           transform="translate(418.1902,102.5963)"
           id="g112"><path
             id="path114"
             style="fill:#ffffff;fill-opacity:1;fill-rule:nonzero;stroke:none"
             d="m 0,0 v 0.046 c 0,2.323 -1.679,4.347 -4.14,4.347 -2.437,0 -4.069,-1.978 -4.069,-4.3 V 0.046 C -8.209,-2.276 -6.53,-4.3 -4.094,-4.3 -1.633,-4.3 0,-2.322 0,0 m -12.785,0 v 0.046 c 0,4.622 3.724,8.37 8.691,8.37 4.968,0 8.647,-3.702 8.647,-8.323 V 0.046 c 0,-4.622 -3.725,-8.37 -8.693,-8.37 -4.966,0 -8.645,3.702 -8.645,8.324" /></g><g
           transform="translate(432.1307,110.691)"
           id="g116"><path
             id="path118"
             style="fill:#ffffff;fill-opacity:1;fill-rule:nonzero;stroke:none"
             d="m 0,0 h 4.461 v -6.024 h 5.726 V 0 h 4.46 v -16.097 h -4.46 V -9.98 H 4.461 v -6.117 H 0 Z" /></g><g
           transform="translate(450.3231,110.691)"
           id="g120"><path
             id="path122"
             style="fill:#ffffff;fill-opacity:1;fill-rule:nonzero;stroke:none"
             d="M 0,0 H 12.946 V -3.794 H 4.415 v -2.437 h 7.727 V -9.75 H 4.415 v -2.553 h 8.647 v -3.794 H 0 Z" /></g><g
           transform="translate(475.7908,100.941)"
           id="g124"><path
             id="path126"
             style="fill:#ffffff;fill-opacity:1;fill-rule:nonzero;stroke:none"
             d="M 0,0 -1.793,4.576 -3.61,0 Z M -3.909,9.865 H 0.392 L 7.243,-6.347 H 2.461 L 1.288,-3.473 H -4.921 L -6.07,-6.347 h -4.692 z" /></g><g
           transform="translate(492.3787,102.9644)"
           id="g128"><path
             id="path130"
             style="fill:#ffffff;fill-opacity:1;fill-rule:nonzero;stroke:none"
             d="m 0,0 c 1.518,0 2.392,0.736 2.392,1.908 v 0.047 c 0,1.265 -0.92,1.908 -2.415,1.908 h -2.92 V 0 Z M -7.404,7.727 H 0.207 C 2.667,7.727 4.369,7.082 5.45,5.979 6.393,5.059 6.876,3.817 6.876,2.23 V 2.185 c 0,-2.46 -1.312,-4.093 -3.312,-4.945 l 3.84,-5.61 h -5.15 l -3.243,4.875 H -1.035 -2.943 V -8.37 h -4.461 z" /></g></g></g></g></svg>